<svg width="596" height="608" xmlns="http://www.w3.org/2000/svg" xmlns:xlink="http://www.w3.org/1999/xlink" xml:space="preserve" overflow="hidden"><defs><clipPath id="clip0"><rect x="1902" y="960" width="596" height="608"/></clipPath><clipPath id="clip1"><rect x="1901" y="972" width="598" height="596"/></clipPath><clipPath id="clip2"><rect x="1901" y="972" width="598" height="596"/></clipPath><clipPath id="clip3"><rect x="1901" y="972" width="598" height="596"/></clipPath></defs><g clip-path="url(#clip0)" transform="translate(-1902 -960)"><g clip-path="url(#clip1)"><g clip-path="url(#clip2)"><g clip-path="url(#clip3)"><path d="M459.416 136.583 136.583 136.583 136.583 459.416 459.416 459.416ZM447 447 149 447 149 149 447 149Z" transform="matrix(1 0 0 1 1902 972)"/><path d="M218.577 383.097 296.448 305.226 374.319 383.097 383.097 374.319 305.226 296.448 383.097 218.577 374.319 209.798 296.448 287.669 218.577 209.798 209.798 218.577 287.669 296.448 209.798 374.319 218.577 383.097Z" transform="matrix(1 0 0 1 1902 972)"/></g></g></g><text font-family="Arial,Arial_MSFontService,sans-serif" font-weight="400" font-size="73" transform="matrix(1 0 0 1 2018.96 1053)">No Mission <tspan font-size="73" x="91.3916" y="88">patch</tspan></text></g></svg>